<?xml version="1.0" encoding="UTF-8"?>
<svg xmlns="http://www.w3.org/2000/svg" id="Layer_1" data-name="Layer 1" viewBox="0 0 512 512" width="512" height="512"><path d="M314.6,178.992a13.1,13.1,0,1,0-13-13.1A13.065,13.065,0,0,0,314.6,178.992Zm0-14.2a1.1,1.1,0,1,1-1,1.1A1.055,1.055,0,0,1,314.6,164.792Z"/><path d="M307.157,197h14.886a6,6,0,0,0,0-12H307.157a6,6,0,0,0,0,12Z"/><path d="M322.043,202H307.157a6,6,0,1,0,0,12h14.886a6,6,0,0,0,0-12Z"/><path d="M61,71.352a6,6,0,0,0-6,6v5.873a6,6,0,0,0,12,0V77.352A6,6,0,0,0,61,71.352Z"/><path d="M61,94.375a6,6,0,0,0-6,6V128.41a6,6,0,0,0,12,0V100.375A6,6,0,0,0,61,94.375Z"/><path d="M495,235h-7V186.417A6.742,6.742,0,0,0,481.577,180H403.162a19.73,19.73,0,0,0-14.052,33.373,20.145,20.145,0,0,0-5.478,13.814,19.734,19.734,0,0,0,1.62,7.813H358V72.961C358,65.241,352.19,59,344.471,59H284.729A13.754,13.754,0,0,0,271,72.961V235H261A24,24,0,1,0,213,235H174V202h62.8A17.5,17.5,0,0,0,254,184.633V62.146A17.309,17.309,0,0,0,236.8,45H52.251A17.356,17.356,0,0,0,35,62.146V184.633A17.547,17.547,0,0,0,52.251,202H114v33H17a6.212,6.212,0,0,0-6,6.242V273a6,6,0,0,0,6,6h4V460.861A5.962,5.962,0,0,0,26.811,467H54.75A6.338,6.338,0,0,0,61,460.861V316H236V460.861A6.146,6.146,0,0,0,242.03,467h27.94a6.146,6.146,0,0,0,6.03-6.139V316H450V460.861A6.355,6.355,0,0,0,456.27,467h28.919A5.962,5.962,0,0,0,491,460.861V279h4a6,6,0,0,0,6-6V241.242A6.212,6.212,0,0,0,495,235Zm-91.838-43H476v15H403.162a7.5,7.5,0,1,1,0-15Zm0,27H476v16H403.162c-4.152,0-7.53-3.848-7.53-8S399.01,219,403.162,219ZM283,72.961A1.755,1.755,0,0,1,284.729,71h59.742c1.1,0,1.529.858,1.529,1.961V94H283ZM283,106h63v16H283Zm0,28h63V235H283Zm-46,88.924A12.037,12.037,0,0,1,248.994,235H225.006A12.037,12.037,0,0,1,237,222.924ZM47,62.146A5.346,5.346,0,0,1,52.251,57H236.8a5.3,5.3,0,0,1,5.2,5.146V162H47ZM52.251,190A5.544,5.544,0,0,1,47,184.633V174H242v10.633A5.5,5.5,0,0,1,236.8,190ZM162,202v33H126V202ZM49,455H33V279H49Zm215,0H248V279h16ZM450,304H276V279H450Zm29,151H462V279h17Zm10-188H125a6,6,0,0,0-6,6h0a6,6,0,0,0,6,6H236v25H61V279H83a6,6,0,0,0,6-6h0a6,6,0,0,0-6-6H23V247H489Z"/></svg>
