<svg height="480pt" viewBox="0 0 480.01591 480" width="480pt" xmlns="http://www.w3.org/2000/svg"><path d="m478.851562 92.980469c-2.6875-11.613281-10.3125-21.472657-20.878906-26.992188l-86.207031-44.382812c-3.734375-1.964844-6.738281-5.082031-8.5625-8.886719-3.324219-7.101562-10.164063-11.90625-17.972656-12.617188-7.804688-.714843-15.40625 2.765626-19.960938 9.144532l-67.570312 93.253906-255.96875 323.105469c-2.488281 3.140625-2.269531 7.644531.515625 10.527343l40 41.433594c1.507812 1.5625 3.585937 2.441406 5.757812 2.4375.449219 0 .898438-.035156 1.34375-.109375l22.65625-3.890625c3.296875-.558594 5.898438-3.113281 6.519532-6.398437l2.847656-15.03125 14.265625 2.902343c2.097656.429688 4.277343-.003906 6.054687-1.195312 1.777344-1.195312 3.003906-3.050781 3.402344-5.15625l2.847656-15.023438 14.253906 2.894532c2.097657.429687 4.277344 0 6.054688-1.195313 1.777344-1.191406 3.003906-3.042969 3.402344-5.148437l2.855468-15.023438 14.265626 2.898438c2.09375.421875 4.273437-.011719 6.050781-1.203125 1.773437-1.195313 3-3.046875 3.394531-5.152344l2.859375-15.023437 14.253906 2.90625c2.097657.414062 4.273438-.015626 6.054688-1.199219 1.777343-1.195313 3.003906-3.050781 3.402343-5.152344l2.847657-15.035156 14.265625 2.90625c2.097656.425781 4.277344-.003907 6.054687-1.199219 1.777344-1.195312 3-3.050781 3.398438-5.152344l2.847656-15.023437 14.265625 2.902343c2.097656.425782 4.277344-.007812 6.050781-1.203124 1.777344-1.191407 3-3.046876 3.398438-5.148438l2.855469-15.03125 14.261718 2.910156c2.097656.429688 4.28125-.003906 6.058594-1.199218 1.777344-1.191407 3-3.046876 3.398438-5.152344l2.847656-15.03125 14.257812 2.902344c2.09375.429687 4.277344-.003907 6.050782-1.195313 1.777343-1.191406 3.003906-3.046875 3.402343-5.148437l2.851563-15.03125 14.269531 2.894531c2.097656.425781 4.277344-.007813 6.050781-1.199219 1.777344-1.195312 3-3.050781 3.398438-5.152344l2.855468-15.023437 14.253907 2.90625c2.101562.425781 4.28125-.007813 6.058593-1.199219 1.777344-1.195312 3-3.050781 3.398438-5.152344l2.847656-15.035156 14.265625 2.90625c2.097657.425781 4.277344-.003906 6.054688-1.195312 1.777343-1.191407 3-3.046876 3.402343-5.148438l2.847657-15.007812 14.253906 2.902343c2.097656.425781 4.277344-.003906 6.054687-1.195312 1.777344-1.191407 3.003907-3.046875 3.402344-5.148438l2.855469-15.03125 14.265625 2.902344c2.324219.457031 4.734375-.125 6.589844-1.597656l16-12.800781c3.324218-2.660157 3.980468-7.457032 1.496094-10.914063l-12.960938-18.070313 46.539062-65.089843c7.144532-9.917969 9.609376-22.457031 6.75-34.34375zm-64.925781 126.386719-18.53125-3.769532c-2.09375-.425781-4.273437.003906-6.050781 1.195313-1.777344 1.191406-3.003906 3.046875-3.402344 5.148437l-2.847656 15.03125-14.289062-2.902344c-2.097657-.417968-4.273438.015626-6.054688 1.199219-1.777344 1.195313-3.003906 3.050781-3.402344 5.152344l-2.855468 15.023437-14.265626-2.902343c-2.097656-.414063-4.273437.015625-6.054687 1.199219-1.773437 1.195312-2.996094 3.050781-3.390625 5.152343l-2.855469 15.03125-14.265625-2.902343c-2.097656-.429688-4.277344.003906-6.054687 1.195312-1.777344 1.195312-3.003907 3.050781-3.402344 5.15625l-2.847656 15.023438-14.253907-2.898438c-2.097656-.425781-4.277343.003906-6.054687 1.199219-1.777344 1.191406-3.003906 3.042969-3.402344 5.148437l-2.839843 15.03125-14.25-2.875c-2.09375-.421875-4.273438.011719-6.050782 1.203125-1.773437 1.195313-2.996094 3.050781-3.394531 5.152344l-2.855469 15.023437-14.25-2.9375c-2.097656-.425781-4.277344.003907-6.054687 1.199219-1.777344 1.195313-3.003907 3.050781-3.402344 5.152344l-2.847656 15.03125-14.261719-2.902344c-2.09375-.417969-4.269531.015625-6.042969 1.207031-1.769531 1.195313-2.992187 3.046876-3.390625 5.144532l-2.847656 15.023437-14.265625-2.902343c-2.09375-.425782-4.273437.007812-6.050781 1.203124-1.773438 1.191407-2.996094 3.046876-3.394532 5.148438l-2.890624 15.054688-14.261719-2.902344c-2.097657-.425782-4.28125.003906-6.058594 1.199218-1.777344 1.191407-3 3.046876-3.398437 5.152344l-2.832032 15-14.253906-2.902344c-2.097656-.429687-4.28125.003907-6.058594 1.195313-1.777344 1.195313-3 3.050781-3.398437 5.15625l-2.847657 15.023437-14.242187-2.898437c-2.09375-.425781-4.277344.003906-6.050781 1.199219-1.777344 1.191406-3.003906 3.042968-3.402344 5.144531l-2.859375 15.035156-14.253906-2.90625c-2.097657-.421875-4.277344.007813-6.050781 1.203125-1.777344 1.191406-3 3.046875-3.398438 5.148438l-3.328125 17.539062-12.992187 2.214844-32.246094-33.351562 245.230468-309.554688 57.753907 76.304688c1.511719 2.015624 3.882812 3.199218 6.398437 3.199218h83.289063l9.792969 13.601563zm45.167969-101.386719-47.210938 66.023437h-79.878906l-58.023437-76.679687 64.199219-88.695313c1.324218-1.707031 3.429687-2.613281 5.578124-2.402344 2.148438.214844 4.039063 1.515626 5 3.453126 3.34375 6.941406 8.847657 12.617187 15.6875 16.175781l86.183594 44.351562c6.414063 3.382813 11.035156 9.394531 12.65625 16.460938 1.773438 7.378906.242188 15.160156-4.191406 21.3125zm0 0"/><path d="m408.691406 91.476562-46.109375-24.621093c-12.101562-6.488281-27.140625-2.941407-35.066406 8.269531-4.890625 6.785156-6.605469 15.351562-4.703125 23.496094 1.804688 7.976562 6.972656 14.78125 14.167969 18.664062l46.113281 24.617188c12.097656 6.511718 27.15625 2.949218 35.054688-8.296875 4.894531-6.78125 6.613281-15.351563 4.710937-23.496094-1.8125-7.964844-6.976563-14.757813-14.167969-18.632813zm-3.503906 32.800782c-3.265625 4.6875-9.515625 6.203125-14.566406 3.535156l-46.113282-24.605469c-3.117187-1.707031-5.34375-4.675781-6.113281-8.144531-.855469-3.644531-.09375-7.480469 2.089844-10.519531 2.140625-3.023438 5.609375-4.828125 9.3125-4.847657 1.832031 0 3.640625.453126 5.253906 1.320313l46.113281 24.589844c3.121094 1.703125 5.347657 4.671875 6.113282 8.144531.851562 3.636719.089844 7.46875-2.089844 10.503906zm0 0"/><path d="m40.003906 416.003906h16v16.570313h-16zm0 0"/><path d="m158.441406 286.84375 63.191406-81.761719 12.652344 9.777344-63.191406 81.765625zm0 0"/><path d="m231.433594 192.371094 10.25-13.261719 12.652344 9.78125-10.25 13.257813zm0 0"/></svg>